<?xml version="1.0" encoding="UTF-8"?>
<svg version="1.1" xmlns="http://www.w3.org/2000/svg" width="573" height="290">
<path d="M0 0 C189.09 0 378.18 0 573 0 C573 95.7 573 191.4 573 290 C383.91 290 194.82 290 0 290 C0 194.3 0 98.6 0 0 Z " fill="#F6F6FC" transform="translate(0,0)"/>
<path d="M0 0 C9.32590212 5.20543818 12.32944362 10.69437314 16.6875 20.5 C16.6875 37.99 16.6875 55.48 16.6875 73.5 C73.7775 73.5 130.8675 73.5 189.6875 73.5 C189.6875 56.67 189.6875 39.84 189.6875 22.5 C193.36230073 12.39429798 196.20978224 5.53663065 205.4375 0 C212.60898588 -3.30991656 220.25312165 -3.70446574 227.89453125 -1.62890625 C239.4206358 2.79305839 243.02128858 8.16757716 248.6875 19.5 C248.6875 37.32 248.6875 55.14 248.6875 73.5 C306.7675 73.5 364.8475 73.5 424.6875 73.5 C424.6875 57 424.6875 40.5 424.6875 23.5 C428.43489666 13.19465917 432.48808155 4.85417394 442.38671875 -0.40234375 C449.7856949 -3.6590939 457.46059702 -3.60151223 465 -0.8125 C473.52415558 3.06578879 479.23195173 9.46762409 482.75039673 18.11114502 C483.88336429 22.20830581 483.98290483 25.87310529 483.97802734 30.10058594 C483.98810318 31.3652771 483.98810318 31.3652771 483.99838257 32.65551758 C484.0173178 35.43186402 484.02128474 38.20796807 484.0234375 40.984375 C484.02986939 42.92482602 484.03659804 44.86527608 484.04360962 46.8057251 C484.05557182 50.87083177 484.05929161 54.93585354 484.05810547 59.00097656 C484.05790254 64.1902886 484.08518267 69.3790514 484.11964989 74.56823349 C484.14197462 78.5764614 484.14594127 82.5845584 484.14488602 86.5928421 C484.14723443 88.50486388 484.1560148 90.41688969 484.17155075 92.32884979 C484.27601169 106.51451647 483.42375218 116.63816905 473.19140625 127.359375 C467.40664252 132.30485164 462.19442966 133.5 454.6875 133.5 C454.6875 143.73 454.6875 153.96 454.6875 164.5 C444.7875 164.5 434.8875 164.5 424.6875 164.5 C424.6875 154.6 424.6875 144.7 424.6875 134.5 C290.0475 134.5 155.4075 134.5 16.6875 134.5 C16.6875 144.4 16.6875 154.3 16.6875 164.5 C7.1175 164.5 -2.4525 164.5 -12.3125 164.5 C-12.3125 154.27 -12.3125 144.04 -12.3125 133.5 C-14.6225 133.5 -16.9325 133.5 -19.3125 133.5 C-26.94804149 131.20818589 -33.1146644 126.22753566 -37.3125 119.5 C-42.34507739 109.71664093 -41.91536335 99.73677028 -41.87890625 89.03515625 C-41.884152 87.15148107 -41.89043193 85.26780852 -41.89768982 83.38414001 C-41.90805184 79.45136077 -41.90359329 75.51894431 -41.88891602 71.58618164 C-41.87173475 66.57525116 -41.89523761 61.56546816 -41.93040562 56.55466557 C-41.9524877 52.66898671 -41.95091211 48.78357788 -41.9426403 44.89785576 C-41.94182669 43.05168842 -41.94857574 41.20550007 -41.96341133 39.35939217 C-42.05187917 26.36074927 -41.16359659 15.80502926 -32.3125 5.5 C-30.12890625 3.76953125 -30.12890625 3.76953125 -27.875 2.3125 C-27.13378906 1.82394531 -26.39257812 1.33539063 -25.62890625 0.83203125 C-17.23465848 -3.99501511 -8.77970574 -4.05895944 0 0 Z " fill="#5047E4" transform="translate(71.3125,109.5)"/>
<path d="M0 0 C0.99787487 -0.00913666 0.99787487 -0.00913666 2.01590884 -0.01845789 C4.2259225 -0.03499255 6.43535396 -0.03032606 8.64541626 -0.0255127 C10.23774306 -0.03285861 11.83006454 -0.04144636 13.42237854 -0.05117798 C17.73446166 -0.07334796 22.04635342 -0.07632693 26.3584857 -0.07443047 C29.96421705 -0.07431055 33.56990818 -0.08288315 37.1756283 -0.09120798 C45.6856046 -0.11042586 54.19548281 -0.11333179 62.70547485 -0.10656738 C71.47099312 -0.09992782 80.23609046 -0.12279117 89.00152338 -0.15988111 C96.53977163 -0.19061552 104.07788474 -0.20193409 111.61619437 -0.1980443 C116.11296567 -0.19598064 120.60940935 -0.20139661 125.10612106 -0.22593689 C129.33674683 -0.24826349 133.56669002 -0.24627758 137.79731941 -0.22600937 C139.34483055 -0.22260971 140.89238817 -0.22764328 142.4398365 -0.24199295 C153.48392905 -0.33729364 160.54995152 1.23633127 168.84317017 8.70690918 C173.63145093 13.78404215 177.1665243 20.32864868 177.14419556 27.40686035 C177.14412003 28.20746384 177.14404449 29.00806732 177.14396667 29.83293152 C177.13880539 30.69239883 177.1336441 31.55186615 177.12832642 32.43737793 C177.12620399 33.76277336 177.12620399 33.76277336 177.1240387 35.11494446 C177.11844086 37.93730046 177.10588878 40.75957715 177.09317017 43.58190918 C177.08815489 45.49531949 177.08359203 47.40873105 177.07949829 49.32214355 C177.06847214 54.01292932 177.051209 58.7036558 177.03067017 63.39440918 C176.36390259 63.71256592 175.69713501 64.03072266 175.01016235 64.35852051 C164.5230493 69.46177802 157.01897526 75.61664696 152.03067017 86.39440918 C146.74336882 102.25631323 148.43835173 119.67946523 148.03067017 136.39440918 C99.52067017 136.39440918 51.01067017 136.39440918 1.03067017 136.39440918 C0.70067017 123.19440918 0.37067017 109.99440918 0.03067017 96.39440918 C-4.99477517 82.5744345 -9.78395597 72.30092316 -23.19979858 65.73034668 C-24.09464966 65.2899707 -24.98950073 64.84959473 -25.91146851 64.39587402 C-26.93010986 63.90014893 -26.93010986 63.90014893 -27.96932983 63.39440918 C-28.11906224 57.7752209 -28.22719014 52.15722526 -28.29891968 46.53649902 C-28.32885901 44.62971741 -28.36962647 42.72307071 -28.42196655 40.81677246 C-28.75757871 28.26750988 -28.87678634 17.93369528 -19.91415405 8.15124512 C-14.10652845 2.53796029 -8.0409894 0.02532575 0 0 Z " fill="#4F46E5" transform="translate(333.9693298339844,31.6055908203125)"/>
<path d="M0 0 C1.54159151 -0.0073485 3.08317753 -0.015937 4.62475586 -0.02566528 C8.79429118 -0.04780774 12.96362844 -0.05081564 17.13321447 -0.04891777 C20.62209185 -0.04879773 24.11092777 -0.05737536 27.59979355 -0.06569529 C35.83511209 -0.08490315 44.07032927 -0.08782271 52.30566406 -0.08105469 C60.78319417 -0.07441548 69.26028901 -0.09727931 77.73773086 -0.13436842 C85.03313024 -0.16512033 92.32839 -0.17641952 99.62385285 -0.1725316 C103.97365135 -0.1704698 108.323111 -0.17585504 112.67284775 -0.20042419 C116.76560692 -0.22278002 120.85766104 -0.22074098 124.95042419 -0.20049667 C126.4459145 -0.19710217 127.94145311 -0.20210807 129.4368782 -0.21648026 C139.6112521 -0.30745921 147.39433302 0.90520811 155.36767578 7.63085938 C155.96708984 8.345 156.56650391 9.05914062 157.18408203 9.79492188 C158.11027344 10.85839844 158.11027344 10.85839844 159.05517578 11.94335938 C163.47453919 18.41420556 164.17393916 23.63096562 164.03955078 31.29101562 C164.03530594 32.21334488 164.0310611 33.13567413 164.02668762 34.08595276 C164.00999567 37.01008223 163.97236141 39.93350336 163.93408203 42.85742188 C163.91902292 44.84894833 163.90533667 46.84048566 163.89306641 48.83203125 C163.86012326 53.69493126 163.80840703 58.55730678 163.74658203 63.41992188 C162.99602539 63.81679199 162.24546875 64.21366211 161.47216797 64.62255859 C160.48506836 65.15123535 159.49796875 65.67991211 158.48095703 66.22460938 C157.50352539 66.74522949 156.52609375 67.26584961 155.51904297 67.80224609 C147.45658934 72.50652733 142.65020738 80.08738122 138.74658203 88.41992188 C134.85844018 103.97248928 136.14723733 120.39370974 135.74658203 136.41992188 C87.89658203 136.41992188 40.04658203 136.41992188 -9.25341797 136.41992188 C-9.74841797 115.62992188 -9.74841797 115.62992188 -10.25341797 94.41992188 C-15.55858089 81.68753086 -20.79469781 71.5210728 -33.3984375 65.31738281 C-34.48078171 64.78271393 -34.48078171 64.78271393 -35.58499146 64.23724365 C-36.41086258 63.83266937 -36.41086258 63.83266937 -37.25341797 63.41992188 C-37.40315037 57.8007336 -37.51127828 52.18273796 -37.58300781 46.56201172 C-37.61294715 44.6552301 -37.6537146 42.74858341 -37.70605469 40.84228516 C-38.04243045 28.26447006 -38.1237149 18.02709086 -29.22753906 8.17675781 C-20.79146044 -0.12343467 -11.13345609 -0.02512822 0 0 Z " fill="#080325" transform="translate(111.25341796875,31.580078125)"/>
<path d="M0 0 C9.32590212 5.20543818 12.32944362 10.69437314 16.6875 20.5 C16.6875 37.99 16.6875 55.48 16.6875 73.5 C73.7775 73.5 130.8675 73.5 189.6875 73.5 C189.6875 56.67 189.6875 39.84 189.6875 22.5 C190.0175 22.5 190.3475 22.5 190.6875 22.5 C190.69336624 23.55520844 190.69923248 24.61041687 190.70527649 25.69760132 C190.76264398 35.67217947 190.83547836 45.64654254 190.92321491 55.62090111 C190.96782395 60.74806502 191.00710075 65.87515121 191.03393555 71.00244141 C191.06006319 75.95631517 191.10053193 80.90988828 191.15068626 85.86357498 C191.16729121 87.74762845 191.17884497 89.63173385 191.18511391 91.51585007 C191.06246084 109.15908269 191.06246084 109.15908269 198.7265625 124.671875 C202.48798763 128.17854225 207.06577284 130.32893956 211.6875 132.5 C211.6875 132.83 211.6875 133.16 211.6875 133.5 C147.3375 133.5 82.9875 133.5 16.6875 133.5 C16.6875 143.73 16.6875 153.96 16.6875 164.5 C7.1175 164.5 -2.4525 164.5 -12.3125 164.5 C-12.3125 154.27 -12.3125 144.04 -12.3125 133.5 C-14.6225 133.5 -16.9325 133.5 -19.3125 133.5 C-26.94804149 131.20818589 -33.1146644 126.22753566 -37.3125 119.5 C-42.34507739 109.71664093 -41.91536335 99.73677028 -41.87890625 89.03515625 C-41.884152 87.15148107 -41.89043193 85.26780852 -41.89768982 83.38414001 C-41.90805184 79.45136077 -41.90359329 75.51894431 -41.88891602 71.58618164 C-41.87173475 66.57525116 -41.89523761 61.56546816 -41.93040562 56.55466557 C-41.9524877 52.66898671 -41.95091211 48.78357788 -41.9426403 44.89785576 C-41.94182669 43.05168842 -41.94857574 41.20550007 -41.96341133 39.35939217 C-42.05187917 26.36074927 -41.16359659 15.80502926 -32.3125 5.5 C-30.12890625 3.76953125 -30.12890625 3.76953125 -27.875 2.3125 C-27.13378906 1.82394531 -26.39257812 1.33539063 -25.62890625 0.83203125 C-17.23465848 -3.99501511 -8.77970574 -4.05895944 0 0 Z " fill="#080426" transform="translate(71.3125,109.5)"/>
<path d="M0 0 C0.66 0.33 1.32 0.66 2 1 C-1.63 4.63 -5.26 8.26 -9 12 C-9 8.26071501 -8.08040398 7.59097747 -5.625 4.875 C-4.99851562 4.17117187 -4.37203125 3.46734375 -3.7265625 2.7421875 C-2 1 -2 1 0 0 Z " fill="#4942AA" transform="translate(275,111)"/>
</svg>
